<?xml version="1.0" standalone="no"?>
<!DOCTYPE svg PUBLIC "-//W3C//DTD SVG 20010904//EN"
 "http://www.w3.org/TR/2001/REC-SVG-20010904/DTD/svg10.dtd">
<svg version="1.0" xmlns="http://www.w3.org/2000/svg"
 width="71.000000pt" height="71.000000pt" viewBox="0 0 71.000000 71.000000"
 preserveAspectRatio="xMidYMid meet">
<metadata>
Created by potrace 1.14, written by Peter Selinger 2001-2017
</metadata>
<g transform="translate(0.000000,71.000000) scale(0.100000,-0.100000)"
fill="#000000" stroke="none">
<path d="M251 696 c-111 -37 -217 -150 -240 -256 -16 -74 -14 -119 9 -194 26
-83 104 -172 188 -213 50 -24 68 -28 147 -28 78 1 98 4 147 29 164 79 241 253
189 424 -27 90 -103 177 -188 218 -70 32 -185 42 -252 20z m253 -106 c14 -5
26 -16 26 -25 0 -20 -19 -19 -42 2 -29 26 -50 7 -75 -68 -12 -35 -22 -67 -22
-71 -1 -3 21 -9 48 -13 34 -5 48 -11 45 -19 -3 -9 -20 -12 -54 -8 -48 4 -50 4
-50 -21 0 -25 20 -37 68 -37 13 0 22 -6 22 -16 0 -13 -8 -15 -49 -9 -46 6 -50
5 -56 -17 -3 -13 -18 -51 -32 -86 -34 -83 -89 -114 -139 -78 -15 12 -16 17 -7
27 10 10 17 9 33 -6 16 -15 25 -17 38 -9 18 11 45 81 57 146 l7 36 -46 7 c-30
5 -46 12 -46 21 0 12 10 13 49 8 44 -6 50 -4 56 16 9 27 7 29 -45 38 -24 4
-46 14 -48 21 -4 11 6 13 51 8 l56 -5 16 48 c19 56 49 98 79 110 28 12 31 12
60 0z"/>
</g>
</svg>
