<svg width="230" height="114" viewBox="0 0 230 114" fill="none" xmlns="http://www.w3.org/2000/svg">
<path opacity="0.2" d="M114.496 56.8553C145.879 56.8553 171.32 47.7565 171.32 36.5326C171.32 25.3086 145.879 16.2098 114.496 16.2098C83.1125 16.2098 57.6714 25.3086 57.6714 36.5326C57.6714 47.7565 83.1125 56.8553 114.496 56.8553Z" stroke="black" stroke-opacity="0.47" stroke-width="0.653069" stroke-miterlimit="10"/>
<path opacity="0.2" d="M114.495 71.3715C160.889 71.3715 198.5 57.94 198.5 41.3713C198.5 24.8026 160.889 11.3711 114.495 11.3711C68.1008 11.3711 30.4907 24.8026 30.4907 41.3713C30.4907 57.94 68.1008 71.3715 114.495 71.3715Z" stroke="black" stroke-opacity="0.47" stroke-width="0.653069" stroke-miterlimit="10"/>
<path opacity="0.2" d="M114.495 83.4309C173.605 83.4309 221.522 66.3332 221.522 45.2421C221.522 24.151 173.605 7.05322 114.495 7.05322C55.3862 7.05322 7.46875 24.151 7.46875 45.2421C7.46875 66.3332 55.3862 83.4309 114.495 83.4309Z" stroke="black" stroke-opacity="0.47" stroke-width="0.653069" stroke-miterlimit="10"/>
<path d="M75.6886 43.2322C83.0879 43.2322 89.0862 37.433 89.0862 30.2792C89.0862 23.1255 83.0879 17.3263 75.6886 17.3263C68.2893 17.3263 62.291 23.1255 62.291 30.2792C62.291 37.433 68.2893 43.2322 75.6886 43.2322Z" fill="#8CD880" fill-opacity="0.16" stroke="#97E286" stroke-opacity="0.5" stroke-width="1.63267" stroke-miterlimit="10"/>
<path d="M221.445 53.3564C224.209 53.3564 226.45 51.1901 226.45 48.5177C226.45 45.8453 224.209 43.679 221.445 43.679C218.681 43.679 216.44 45.8453 216.44 48.5177C216.44 51.1901 218.681 53.3564 221.445 53.3564Z" fill="#8CD880" fill-opacity="0.16" stroke="#97E286" stroke-opacity="0.5" stroke-width="1.63267" stroke-miterlimit="10"/>
<path d="M140.829 88.2698C144.401 88.2698 147.296 85.4702 147.296 82.0167C147.296 78.5632 144.401 75.7635 140.829 75.7635C137.257 75.7635 134.361 78.5632 134.361 82.0167C134.361 85.4702 137.257 88.2698 140.829 88.2698Z" fill="#8CD880" fill-opacity="0.16" stroke="#97E286" stroke-opacity="0.5" stroke-width="1.63267" stroke-miterlimit="10"/>
<path d="M58.0566 11.8922L63.2925 23.5797L82.3879 18.2943L80.309 5.78796L77.1521 11.7433L72.6092 7.87235L70.4533 13.6044L65.7564 9.7334L63.9085 15.391L58.0566 11.8922Z" fill="#FF755A" stroke="#FF755A" stroke-width="0.506781" stroke-miterlimit="10" stroke-linejoin="round"/>
<path d="M58.4351 13.1778C59.1713 12.9752 59.5982 12.2339 59.3887 11.5222C59.1792 10.8104 58.4125 10.3976 57.6763 10.6002C56.9401 10.8028 56.5131 11.544 56.7227 12.2558C56.9322 12.9676 57.6989 13.3804 58.4351 13.1778Z" fill="#F05234"/>
<path d="M65.9815 10.5032C66.7177 10.3006 67.1446 9.55937 66.9351 8.8476C66.7255 8.13583 65.9589 7.72307 65.2227 7.92566C64.4865 8.12825 64.0595 8.86948 64.2691 9.58125C64.4786 10.293 65.2453 10.7058 65.9815 10.5032Z" fill="#F05234"/>
<path d="M72.7579 8.64236C73.4941 8.43977 73.921 7.69853 73.7115 6.98676C73.5019 6.27499 72.7352 5.86222 71.999 6.06482C71.2628 6.26741 70.8359 7.00864 71.0454 7.72041C71.255 8.43218 72.0217 8.84495 72.7579 8.64236Z" fill="#F05234"/>
<path d="M80.691 7.0707C81.4272 6.86811 81.8541 6.12688 81.6446 5.41511C81.435 4.70334 80.6683 4.29057 79.9321 4.49316C79.1959 4.69575 78.769 5.43699 78.9785 6.14876C79.1881 6.86053 79.9548 7.2733 80.691 7.0707Z" fill="#F05234"/>
<path d="M168.086 37.5747C171.786 37.5747 174.785 34.675 174.785 31.0982C174.785 27.5213 171.786 24.6217 168.086 24.6217C164.386 24.6217 161.387 27.5213 161.387 31.0982C161.387 34.675 164.386 37.5747 168.086 37.5747Z" fill="#8CD880" fill-opacity="0.16" stroke="#97E286" stroke-opacity="0.5" stroke-width="1.63267" stroke-miterlimit="10"/>
<path d="M221.445 48.5178L203.043 67.8727M166.469 65.1184L203.043 67.8727L198.038 43.679M44.0428 56.4086L75.6888 30.875M38.8069 29.3861L75.6888 30.2794M9.54785 48.6667L75.6888 30.2794M104.178 56.1853L75.6888 30.2794M75.6888 30.875L55.9004 76.8802M75.9968 31.0983L93.9372 83.5056M100.636 7.42566L75.6888 30.875" stroke="#65BFEC" stroke-width="1.30614" stroke-miterlimit="10" stroke-linecap="round"/>
<path d="M57.6707 84.9197C62.2634 84.9197 65.9865 81.3202 65.9865 76.88C65.9865 72.4397 62.2634 68.8402 57.6707 68.8402C53.0781 68.8402 49.355 72.4397 49.355 76.88C49.355 81.3202 53.0781 84.9197 57.6707 84.9197Z" fill="white" stroke="#65BFEC" stroke-width="1.63267" stroke-miterlimit="10"/>
<path d="M166.468 65.1187L144.524 40.1805L156.151 9.80811M133.667 18.0712L144.524 39.585M140.828 82.0171L166.468 65.1187" stroke="#65BFEC" stroke-width="1.30614" stroke-miterlimit="10" stroke-linecap="round"/>
<path d="M166.469 73.1583C171.061 73.1583 174.784 69.5587 174.784 65.1185C174.784 60.6783 171.061 57.0787 166.469 57.0787C161.876 57.0787 158.153 60.6783 158.153 65.1185C158.153 69.5587 161.876 73.1583 166.469 73.1583Z" fill="white" stroke="#65BFEC" stroke-width="1.63267" stroke-miterlimit="10"/>
<path d="M100.636 12.7111C103.656 12.7111 106.103 10.3447 106.103 7.42566C106.103 4.50661 103.656 2.14026 100.636 2.14026C97.617 2.14026 95.1694 4.50661 95.1694 7.42566C95.1694 10.3447 97.617 12.7111 100.636 12.7111Z" fill="#E0F2F3" stroke="#65BFEC" stroke-width="1.63267" stroke-miterlimit="10"/>
<path d="M203.043 74.4983C206.827 74.4983 209.896 71.532 209.896 67.8729C209.896 64.2138 206.827 61.2476 203.043 61.2476C199.258 61.2476 196.19 64.2138 196.19 67.8729C196.19 71.532 199.258 74.4983 203.043 74.4983Z" fill="#E0F2F3" stroke="#65BFEC" stroke-width="1.63267" stroke-miterlimit="10"/>
<path d="M9.54771 56.9297C14.2679 56.9297 18.0944 53.2302 18.0944 48.6667C18.0944 44.1031 14.2679 40.4036 9.54771 40.4036C4.82748 40.4036 1.00098 44.1031 1.00098 48.6667C1.00098 53.2302 4.82748 56.9297 9.54771 56.9297Z" fill="#E0F2F3" stroke="#65BFEC" stroke-width="1.63267" stroke-miterlimit="10"/>
<path d="M144.525 45.2421C147.757 45.2421 150.376 42.7091 150.376 39.5845C150.376 36.4599 147.757 33.9269 144.525 33.9269C141.293 33.9269 138.673 36.4599 138.673 39.5845C138.673 42.7091 141.293 45.2421 144.525 45.2421Z" fill="white" stroke="#65BFEC" stroke-width="1.63267" stroke-miterlimit="10"/>
<path d="M133.668 22.9097C136.432 22.9097 138.673 20.7433 138.673 18.0709C138.673 15.3986 136.432 13.2322 133.668 13.2322C130.904 13.2322 128.663 15.3986 128.663 18.0709C128.663 20.7433 130.904 22.9097 133.668 22.9097Z" fill="white" stroke="#65BFEC" stroke-width="1.63267" stroke-miterlimit="10"/>
<path d="M195.112 19.7084L198.038 43.6788L168.086 31.098" stroke="#65BFEC" stroke-width="1.30614" stroke-miterlimit="10" stroke-linecap="round"/>
<path d="M104.178 61.6195C107.367 61.6195 109.953 59.1865 109.953 56.1853C109.953 53.184 107.367 50.751 104.178 50.751C100.989 50.751 98.4033 53.184 98.4033 56.1853C98.4033 59.1865 100.989 61.6195 104.178 61.6195Z" fill="#E0F2F3" stroke="#65BFEC" stroke-width="1.63267" stroke-miterlimit="10"/>
<path d="M195.112 25.6637C198.599 25.6637 201.426 22.9974 201.426 19.7083C201.426 16.4192 198.599 13.7529 195.112 13.7529C191.625 13.7529 188.798 16.4192 188.798 19.7083C188.798 22.9974 191.625 25.6637 195.112 25.6637Z" fill="#E0F2F3" stroke="#65BFEC" stroke-width="1.63267" stroke-miterlimit="10"/>
<path d="M156.151 15.2419C159.34 15.2419 161.926 12.8088 161.926 9.80757C161.926 6.8063 159.34 4.37329 156.151 4.37329C152.961 4.37329 150.376 6.8063 150.376 9.80757C150.376 12.8088 152.961 15.2419 156.151 15.2419Z" fill="#E0F2F3" stroke="#65BFEC" stroke-width="1.63267" stroke-miterlimit="10"/>
<path d="M93.7825 87.898C97.142 87.898 99.8653 85.265 99.8653 82.017C99.8653 78.7691 97.142 76.1361 93.7825 76.1361C90.4231 76.1361 87.6997 78.7691 87.6997 82.017C87.6997 85.265 90.4231 87.898 93.7825 87.898Z" fill="#E0F2F3" stroke="#65BFEC" stroke-width="1.63267" stroke-miterlimit="10"/>
<path d="M198.038 48.5181C200.802 48.5181 203.043 46.3517 203.043 43.6793C203.043 41.007 200.802 38.8406 198.038 38.8406C195.274 38.8406 193.033 41.007 193.033 43.6793C193.033 46.3517 195.274 48.5181 198.038 48.5181Z" fill="white" stroke="#65BFEC" stroke-width="1.63267" stroke-miterlimit="10"/>
<path d="M44.0427 63.0339C47.8274 63.0339 50.8955 60.0676 50.8955 56.4086C50.8955 52.7495 47.8274 49.7832 44.0427 49.7832C40.258 49.7832 37.1899 52.7495 37.1899 56.4086C37.1899 60.0676 40.258 63.0339 44.0427 63.0339Z" fill="#E0F2F3" stroke="#65BFEC" stroke-width="1.63267" stroke-miterlimit="10"/>
<path d="M38.8066 34.2249C41.5707 34.2249 43.8114 32.0585 43.8114 29.3861C43.8114 26.7137 41.5707 24.5474 38.8066 24.5474C36.0425 24.5474 33.8018 26.7137 33.8018 29.3861C33.8018 32.0585 36.0425 34.2249 38.8066 34.2249Z" fill="white" stroke="#65BFEC" stroke-width="1.63267" stroke-miterlimit="10"/>
</svg>
