<svg width="193" height="120" viewBox="0 0 193 120" fill="none" xmlns="http://www.w3.org/2000/svg">
<path opacity="0.3" d="M75.1029 51.8779L68.8763 111.122M129.265 100.133L183.822 59.6179M5.72021 67.2623L75.1029 51.8779L50.4928 9.16455L128.277 27.989L129.265 100.133" stroke="#6AC9D0" stroke-width="2.09573" stroke-miterlimit="10"/>
<path d="M183.823 67.4535C188.299 67.4535 191.927 63.9454 191.927 59.6179C191.927 55.2904 188.299 51.7823 183.823 51.7823C179.347 51.7823 175.718 55.2904 175.718 59.6179C175.718 63.9454 179.347 67.4535 183.823 67.4535Z" fill="#94E57E"/>
<path d="M49.0103 17.0002C53.4863 17.0002 57.1148 13.4921 57.1148 9.16466C57.1148 4.8372 53.4863 1.3291 49.0103 1.3291C44.5343 1.3291 40.9058 4.8372 40.9058 9.16466C40.9058 13.4921 44.5343 17.0002 49.0103 17.0002Z" fill="#6AC9D0"/>
<path d="M9.67387 74.047C14.1499 74.047 17.7784 70.5389 17.7784 66.2114C17.7784 61.884 14.1499 58.3759 9.67387 58.3759C5.19786 58.3759 1.56934 61.884 1.56934 66.2114C1.56934 70.5389 5.19786 74.047 9.67387 74.047Z" fill="#58B5FE"/>
<path d="M129.265 35.5381C133.741 35.5381 137.37 32.03 137.37 27.7025C137.37 23.375 133.741 19.8669 129.265 19.8669C124.789 19.8669 121.161 23.375 121.161 27.7025C121.161 32.03 124.789 35.5381 129.265 35.5381Z" fill="#58B5FE"/>
<path d="M129.265 107.969C133.741 107.969 137.37 104.461 137.37 100.134C137.37 95.8062 133.741 92.2981 129.265 92.2981C124.789 92.2981 121.161 95.8062 121.161 100.134C121.161 104.461 124.789 107.969 129.265 107.969Z" fill="#6AC9D0"/>
<path d="M68.876 118.958C73.352 118.958 76.9805 115.45 76.9805 111.123C76.9805 106.795 73.352 103.287 68.876 103.287C64.4 103.287 60.7715 106.795 60.7715 111.123C60.7715 115.45 64.4 118.958 68.876 118.958Z" fill="#6AC9D0"/>
<path d="M75.1031 59.7136C79.5791 59.7136 83.2076 56.2055 83.2076 51.878C83.2076 47.5506 79.5791 44.0425 75.1031 44.0425C70.6271 44.0425 66.9985 47.5506 66.9985 51.878C66.9985 56.2055 70.6271 59.7136 75.1031 59.7136Z" fill="#94E57E"/>
</svg>
