<svg id="Layer_1" data-name="Layer 1" xmlns="http://www.w3.org/2000/svg" viewBox="0 0 477 197.74"><defs><style>.cls-1{fill:#3492fc;}</style></defs><g id="Group_432" data-name="Group 432"><g id="Group_371" data-name="Group 371"><g id="Line_38" data-name="Line 38"><path class="cls-1" d="M156.63,130.67a4.92,4.92,0,0,1-4.92-4.92V71.94a4.92,4.92,0,0,1,9.84,0v53.81A4.92,4.92,0,0,1,156.63,130.67Z"/></g><g id="Line_39" data-name="Line 39"><path class="cls-1" d="M156.62,76.88a4.88,4.88,0,0,1-2.45-.66l-46.6-26.91a4.91,4.91,0,1,1,4.92-8.51l46.6,26.91a4.91,4.91,0,0,1-2.47,9.17Z"/></g><g id="Line_44" data-name="Line 44"><path class="cls-1" d="M63.42,76.89A4.92,4.92,0,0,1,61,67.71l46.6-26.9a4.92,4.92,0,0,1,4.91,8.52l-46.6,26.9A4.93,4.93,0,0,1,63.42,76.89Z"/></g><g id="Path_218" data-name="Path 218"><path class="cls-1" d="M63.42,130.71a4.92,4.92,0,0,1-4.92-4.92V72a4.92,4.92,0,0,1,9.83,0v53.81A4.91,4.91,0,0,1,63.42,130.71Z"/></g><g id="Line_54" data-name="Line 54"><path class="cls-1" d="M110,157.63a5,5,0,0,1-2.46-.66L61,130.06a4.92,4.92,0,0,1,4.92-8.52l46.6,26.91a4.92,4.92,0,0,1-2.46,9.18Z"/></g><g id="Line_59" data-name="Line 59"><path class="cls-1" d="M110,157.61a4.91,4.91,0,0,1-2.46-9.17l46.6-26.9a4.91,4.91,0,1,1,4.92,8.51L112.5,157A4.89,4.89,0,0,1,110,157.61Z"/></g><g id="Line_97" data-name="Line 97"><path class="cls-1" d="M110,103.78a4.92,4.92,0,0,1-4.92-4.92V45.06a4.92,4.92,0,1,1,9.84,0v53.8A4.91,4.91,0,0,1,110,103.78Z"/></g><g id="Line_98" data-name="Line 98"><path class="cls-1" d="M110,103.79a4.91,4.91,0,0,1-2.46-9.17l46.6-26.9a4.92,4.92,0,0,1,4.92,8.52l-46.6,26.89A4.89,4.89,0,0,1,110,103.79Z"/></g><g id="Line_99" data-name="Line 99"><path class="cls-1" d="M110,103.8a4.85,4.85,0,0,1-2.45-.66L61,76.25a4.92,4.92,0,0,1,4.92-8.52l46.59,26.9A4.91,4.91,0,0,1,110,103.8Z"/></g><g id="Line_100" data-name="Line 100"><path class="cls-1" d="M63.43,130.73A4.92,4.92,0,0,1,61,121.55l46.6-26.91a4.92,4.92,0,0,1,4.91,8.52L65.89,130.07A5,5,0,0,1,63.43,130.73Z"/></g><g id="Line_101" data-name="Line 101"><path class="cls-1" d="M156.65,130.72a4.82,4.82,0,0,1-2.45-.66l-46.6-26.91a4.91,4.91,0,0,1,4.91-8.51l46.6,26.9a4.92,4.92,0,0,1-2.46,9.18Z"/></g><g id="Line_102" data-name="Line 102"><path class="cls-1" d="M110.05,157.62a4.92,4.92,0,0,1-4.92-4.92V98.9a4.92,4.92,0,1,1,9.83,0v53.8A4.92,4.92,0,0,1,110.05,157.62Z"/></g></g><g id="Group_372" data-name="Group 372"><path id="Medium_length_displa" data-name="Medium length displa" class="cls-1" d="M204.8,61h33.1a47.53,47.53,0,0,1,21.52,4.71A34.88,34.88,0,0,1,274,79a37.78,37.78,0,0,1,5.17,19.85A37.7,37.7,0,0,1,274,118.73,34.82,34.82,0,0,1,259.4,132a47.45,47.45,0,0,1-21.5,4.71H204.8Zm32.45,63.82a32.19,32.19,0,0,0,14.66-3.19,22.83,22.83,0,0,0,9.73-9.09,26.82,26.82,0,0,0,3.41-13.68,26.82,26.82,0,0,0-3.41-13.68,22.89,22.89,0,0,0-9.73-9.09,32.19,32.19,0,0,0-14.66-3.19H218.86v51.92Zm79,13a57.39,57.39,0,0,1-16.92-2.49,35.36,35.36,0,0,1-12.93-6.6l4.87-10.92a38.26,38.26,0,0,0,11.41,6,41.27,41.27,0,0,0,13.57,2.33,23.48,23.48,0,0,0,12.6-2.71A8.18,8.18,0,0,0,333,116.3a6.94,6.94,0,0,0-2.33-5.36,16.3,16.3,0,0,0-5.9-3.3q-3.57-1.19-9.73-2.7a114.07,114.07,0,0,1-14-4.11,23.1,23.1,0,0,1-9.19-6.44,17.29,17.29,0,0,1-3.82-11.84,20.14,20.14,0,0,1,3.41-11.41A23.07,23.07,0,0,1,301.72,63a41.54,41.54,0,0,1,16.81-3.05,54.47,54.47,0,0,1,13.63,1.73,37.63,37.63,0,0,1,11.57,5l-4.42,10.92a44.09,44.09,0,0,0-10.39-4.42,39.18,39.18,0,0,0-10.49-1.52,22,22,0,0,0-12.38,2.82A8.67,8.67,0,0,0,302,81.91a6.76,6.76,0,0,0,2.33,5.3,16.63,16.63,0,0,0,5.9,3.24q3.57,1.2,9.73,2.71a102.62,102.62,0,0,1,13.85,4,23.79,23.79,0,0,1,9.24,6.44,16.92,16.92,0,0,1,3.84,11.68,19.87,19.87,0,0,1-3.4,11.36,23.21,23.21,0,0,1-10.33,8.11A41.89,41.89,0,0,1,316.26,137.82Zm66.69,0A57.45,57.45,0,0,1,366,135.33a35.36,35.36,0,0,1-12.93-6.6L358,117.81a38.38,38.38,0,0,0,11.41,6A41.33,41.33,0,0,0,383,126.14a23.5,23.5,0,0,0,12.6-2.71,8.19,8.19,0,0,0,4.16-7.13,6.93,6.93,0,0,0-2.32-5.36,16.46,16.46,0,0,0-5.9-3.3q-3.57-1.19-9.74-2.7a114.07,114.07,0,0,1-14-4.11,23.17,23.17,0,0,1-9.19-6.44,17.33,17.33,0,0,1-3.84-11.84,20.14,20.14,0,0,1,3.41-11.41A23,23,0,0,1,368.4,63a41.74,41.74,0,0,1,16.82-3,54.47,54.47,0,0,1,13.63,1.73,37.58,37.58,0,0,1,11.57,5L406,77.57a44.09,44.09,0,0,0-10.39-4.42,39.18,39.18,0,0,0-10.49-1.52,21.94,21.94,0,0,0-12.38,2.82,8.66,8.66,0,0,0-4.06,7.45A6.75,6.75,0,0,0,371,87.2a16.8,16.8,0,0,0,5.9,3.24q3.57,1.2,9.74,2.71a102.48,102.48,0,0,1,13.84,4,23.75,23.75,0,0,1,9.25,6.44,16.94,16.94,0,0,1,3.84,11.68,19.88,19.88,0,0,1-3.41,11.36,23.13,23.13,0,0,1-10.32,8.11,42.15,42.15,0,0,1-16.9,3Z"/></g></g></svg>