<svg width="118" height="136" viewBox="0 0 118 136" fill="none" xmlns="http://www.w3.org/2000/svg">
<path d="M58.8452 135.706L117.606 101.755V33.9023L58.8452 67.8045V135.706Z" fill="#35777A"/>
<path d="M58.8452 135.706V67.7385L0.0847168 33.9023V101.755L58.8452 135.706Z" fill="#43979B"/>
<path d="M0.0847168 33.9021L58.8452 67.8043L117.606 33.9021L58.8452 0L0.0847168 33.9021Z" fill="#3F898D"/>
<path d="M52.7999 8.1543L10.1925 32.7708C10.2892 33.5446 10.2892 34.2701 10.1925 35.0439L52.7999 59.6604C56.3788 57.0005 61.3117 57.0005 64.8906 59.6604L107.498 35.0439C107.401 34.2701 107.401 33.5446 107.498 32.7708L64.8906 8.1543C61.2634 10.8142 56.3788 10.8142 52.7999 8.1543Z" fill="#51B8BC"/>
<path d="M111.56 41.8145L68.9047 66.6728C69.3883 71.1222 66.9702 75.3297 62.8594 77.1191L62.9077 126.062C63.5848 126.352 64.2619 126.739 64.8906 127.223L107.498 102.606C107.014 98.1568 109.433 93.9493 113.543 92.1599V42.9752C112.866 42.685 112.189 42.2981 111.56 41.8145Z" fill="#459DA2"/>
<path d="M6.13008 42.1045C5.50137 42.5398 4.87266 42.9267 4.14722 43.2652V92.4499C8.25804 94.2394 10.6762 98.4953 10.1925 102.896L52.8 127.513C53.4287 127.078 54.0574 126.691 54.7828 126.352V77.1674C50.672 75.3779 48.2539 71.122 48.7375 66.7211L6.13008 42.1045Z" fill="#64C1C8"/>
<path d="M18.4102 49.0632H10.5876V86.9048H18.4102V49.0632Z" fill="white"/>
<path d="M32.0508 86.9048V73.0198C33.9576 73.1664 35.9132 73.1664 37.5266 73.1664C48.6737 73.1664 51.9005 67.6418 51.9005 60.8459C51.9005 52.5834 45.9847 49.0632 36.891 49.0632H24.2283V86.9048H32.0508ZM36.2554 67.6907C34.7887 67.6907 32.6864 67.6907 32.0019 67.6418V54.7835H36.891C41.5845 54.7835 44.2735 57.0324 44.2735 61.1393V61.2371C44.3224 64.4639 43.149 67.6907 36.2554 67.6907Z" fill="white"/>
<path d="M78.6437 49.0632H54.8827V86.9048H62.7052V70.233H77.5681V64.5616H62.6563V54.8324H78.1059L78.6437 49.0632Z" fill="white"/>
<path d="M104.263 56.4949L106.316 51.2636C103.285 49.0635 99.129 48.2812 93.9466 48.2812C86.3685 48.2812 80.1594 51.8014 80.1594 59.0372C80.1594 65.5397 84.9507 68.0821 89.6931 69.6466L94.4844 71.26C97.7601 72.3845 100.449 73.4601 100.449 76.9802C100.449 80.207 97.6623 81.4782 93.4088 81.4782C89.1064 81.4782 84.5107 80.207 81.8706 78.5447L79.8171 84.216C83.2395 86.4161 87.5908 87.4917 93.4088 87.4917C101.72 87.4917 108.125 83.8249 108.125 76.1002C108.125 68.8643 102.6 66.5664 97.0267 64.7086L91.8443 62.9974C89.5953 62.264 87.8841 61.2373 87.8841 58.3528C87.8841 55.4193 90.2798 54.2459 93.8977 54.2459C98.2979 54.0993 101.72 54.9304 104.263 56.4949Z" fill="white"/>
</svg>
