<?xml version="1.0" encoding="utf-8"?>
<!-- Generator: Adobe Illustrator 24.2.0, SVG Export Plug-In . SVG Version: 6.00 Build 0)  -->
<svg version="1.1" id="Layer_1" xmlns="http://www.w3.org/2000/svg" xmlns:xlink="http://www.w3.org/1999/xlink" x="0px" y="0px"
	 viewBox="0 0 101.4 33.5" style="enable-background:new 0 0 101.4 33.5;" xml:space="preserve">
<style type="text/css">
	.st0{fill:#3A787A;}
	.st1{fill:#FFFFFF;}
</style>
<polygon class="st0" points="0.8,9.6 0.8,23.9 13.1,31 25.5,23.9 25.5,9.6 13.1,2.5 "/>
<path class="st1" d="M7.2,10.5H19c0.7,0,1.3,0.6,1.3,1.3v0c0,0.7-0.6,1.3-1.3,1.3H7.2c-0.7,0-1.3-0.6-1.3-1.3v0
	C5.9,11.1,6.5,10.5,7.2,10.5z"/>
<path class="st1" d="M8.4,15.5h9.4c0.7,0,1.3,0.6,1.3,1.3l0,0c0,0.7-0.6,1.3-1.3,1.3H8.4c-0.7,0-1.3-0.6-1.3-1.3l0,0
	C7.1,16.1,7.7,15.5,8.4,15.5z"/>
<path class="st1" d="M7.2,20.4H19c0.7,0,1.3,0.6,1.3,1.3l0,0c0,0.7-0.6,1.3-1.3,1.3H7.2c-0.7,0-1.3-0.6-1.3-1.3l0,0
	C5.9,21,6.5,20.4,7.2,20.4z"/>
<g>
	<path d="M31.1,21.7v-11h2.2v4.9l4.4-4.9h2.9l-4.1,4.3l4.3,6.7H38l-3-5.2l-1.8,1.8v3.3H31.1z"/>
	<path d="M42,21.7v-11h8v1.9h-5.8V15h5.4v1.8h-5.4v3h6v1.8H42z"/>
	<path d="M52.1,21.7v-11h2.1l4.4,7.3v-7.3h2v11h-2.2l-4.4-7.2v7.2H52.1z"/>
	<path d="M67.3,21.7V10.8h2.2v9h5.4v1.8H67.3z"/>
	<path d="M78,16.1l-1.9-0.3c0.2-0.7,0.5-1.3,1.1-1.7c0.5-0.4,1.3-0.6,2.3-0.6c0.9,0,1.6,0.1,2.1,0.3c0.4,0.2,0.7,0.5,1,0.8
		c0.2,0.3,0.3,1,0.3,1.9l0,2.5c0,0.5,0,1,0.1,1.5c0.1,0.4,0.2,0.7,0.4,1.1h-2.1C81.1,21.5,81,21.3,81,21c0-0.1-0.1-0.2-0.1-0.3
		c-0.3,0.3-0.7,0.6-1.1,0.8c-0.4,0.2-0.8,0.3-1.3,0.3c-0.7,0-1.4-0.2-1.9-0.6c-0.5-0.4-0.7-1.1-0.7-1.7c0-0.4,0.1-0.8,0.3-1.2
		c0.2-0.4,0.5-0.6,0.9-0.8c0.5-0.2,1.1-0.4,1.6-0.5c0.7-0.1,1.4-0.3,2-0.5v-0.2c0-0.3-0.1-0.6-0.3-0.9c-0.2-0.2-0.6-0.3-1.1-0.3
		c-0.3,0-0.6,0.1-0.9,0.2C78.2,15.6,78,15.8,78,16.1z M80.7,17.8c-0.4,0.1-0.8,0.2-1.3,0.3c-0.4,0.1-0.8,0.2-1.1,0.4
		c-0.3,0.2-0.4,0.4-0.4,0.7c0,0.3,0.1,0.6,0.3,0.8c0.2,0.2,0.5,0.3,0.8,0.3c0.4,0,0.8-0.1,1.1-0.4c0.2-0.2,0.4-0.4,0.5-0.7
		c0.1-0.3,0.1-0.7,0.1-1L80.7,17.8z"/>
	<path d="M84.7,21.7v-11h2.1v4c0.5-0.7,1.4-1.1,2.3-1.1c0.9,0,1.8,0.4,2.4,1c0.6,0.7,0.9,1.7,0.9,3c0,1.4-0.3,2.4-1,3.1
		c-0.6,0.7-1.4,1.1-2.3,1.1c-0.5,0-0.9-0.1-1.3-0.3c-0.5-0.2-0.8-0.6-1.1-1v1.2L84.7,21.7z M86.8,17.5c0,0.8,0.1,1.4,0.4,1.8
		c0.3,0.5,0.8,0.8,1.4,0.8c0.5,0,0.9-0.2,1.2-0.6c0.3-0.4,0.5-1,0.5-1.9c0-0.9-0.2-1.6-0.5-2c-0.3-0.4-0.8-0.6-1.2-0.6
		c-0.5,0-0.9,0.2-1.2,0.6C86.9,16.1,86.8,16.7,86.8,17.5L86.8,17.5z"/>
	<path d="M93.3,19.4l2.1-0.3c0.1,0.4,0.3,0.7,0.5,0.9c0.3,0.2,0.7,0.3,1.1,0.3c0.4,0,0.8-0.1,1.2-0.3c0.2-0.1,0.3-0.3,0.3-0.6
		c0-0.1,0-0.3-0.1-0.4c-0.2-0.1-0.4-0.2-0.7-0.3c-1.7-0.4-2.7-0.7-3.2-1c-0.6-0.4-1-1.1-0.9-1.8c0-0.7,0.3-1.3,0.8-1.7
		c0.5-0.5,1.4-0.7,2.5-0.7c1.1,0,1.9,0.2,2.4,0.5c0.5,0.4,0.9,0.9,1.1,1.6l-2,0.4c-0.1-0.3-0.2-0.5-0.5-0.7c-0.3-0.2-0.6-0.3-1-0.3
		c-0.4,0-0.8,0-1.2,0.2c-0.1,0.1-0.2,0.3-0.2,0.4c0,0.2,0.1,0.3,0.2,0.4c0.2,0.1,0.8,0.3,1.9,0.6c1.1,0.3,1.9,0.6,2.3,0.9
		c0.4,0.4,0.7,1,0.7,1.6c0,0.7-0.3,1.4-0.9,1.9c-0.6,0.5-1.5,0.8-2.7,0.8c-1.1,0-1.9-0.2-2.5-0.7C93.9,20.7,93.5,20.1,93.3,19.4z"/>
</g>
</svg>
