<svg width="321" height="56" viewBox="0 0 321 56" fill="none" xmlns="http://www.w3.org/2000/svg">
<path d="M128.024 17.9417H104.191V20.8548H128.789V18.7962C128.825 18.3301 128.497 17.9417 128.024 17.9417ZM128.024 27.0305H104.191V29.9436H128.789V27.885C128.825 27.4189 128.497 27.0305 128.024 27.0305ZM128.024 36.0805H104.191V38.9936H128.789V36.935C128.825 36.5078 128.497 36.0805 128.024 36.0805ZM214.187 20.4275V19.0292C214.187 18.5631 213.86 18.1747 213.423 18.1747H204.254V16.8541H199.523V18.1747H189.554V20.4275H199.523V23.9621H189.554V26.2149H191.664L189.554 39.0713H192.938C193.556 39.0713 194.175 38.5275 194.284 37.8672C194.357 37.5177 195.303 31.6526 196.212 26.2149H199.523V39.0713H203.089C203.708 39.0713 204.217 38.5275 204.217 37.8672V26.2149H207.528C208.438 31.6526 209.384 37.4788 209.457 37.8672C209.566 38.5275 210.185 39.0713 210.803 39.0713H214.187L212.077 26.2149H214.187V24.8166C214.187 24.3505 213.86 23.9621 213.423 23.9621H204.254V20.4275H214.187ZM232.708 20.4275H242.641V19.0292C242.641 18.5631 242.314 18.1747 241.877 18.1747H232.708V16.8541H227.978V18.1747H218.008V20.4275H227.978V23.9621H224.594C224.448 23.0687 224.303 22.1365 224.157 21.2432H219.645L220.082 23.9621H218.044V26.2149H220.155L218.044 39.0713H221.428C222.047 39.0713 222.665 38.5275 222.774 37.8672C222.847 37.5177 223.793 31.6526 224.703 26.2149H228.014V39.0713H231.58C232.198 39.0713 232.708 38.5275 232.708 37.8672V26.2149H236.019C236.929 31.6526 237.875 37.4788 237.947 37.8672C238.057 38.5275 238.675 39.0713 239.294 39.0713H242.678L240.567 26.2149H242.678V24.8166C242.678 24.3505 242.35 23.9621 241.914 23.9621H240.458L240.895 21.2432H236.383C236.237 22.1365 236.092 23.0687 235.946 23.9621H232.744C232.708 22.6803 232.708 21.4762 232.708 20.4275ZM297.039 16.8541H283.139V39.0713H286.305C286.923 39.0713 287.433 38.5275 287.433 37.8672V22.5638H298.421C299.04 22.5638 299.549 22.02 299.549 21.3597V16.8541H297.039ZM287.469 20.311V19.1069H295.292V20.311H287.469ZM281.684 18.1747H281.102V16.8541H276.808V18.1747H274.952V20.4275H276.808V25.5934L274.952 25.9818V28.2346L276.808 27.8074V36.7797H274.952V39.0325H279.974C280.592 39.0325 281.102 38.4887 281.102 37.8284V26.914L282.23 26.681V24.4282L281.102 24.6612V20.4275H282.484V19.0292C282.484 18.5631 282.157 18.1747 281.684 18.1747Z" fill="#005BAB"/>
<path d="M295.907 27.8365V26.3279H299.549V24.8988C299.549 24.4224 299.221 24.0254 298.784 24.0254H295.907V22.9138H292.593V24.0254H288.879V26.3279H292.593V27.8365H288.879V39.0317H298.42C299.039 39.0317 299.549 38.4759 299.549 37.801V27.8365H295.907ZM292.593 36.7291V30.1391H295.907V36.7291H292.593ZM258.87 17.6735L259.089 16.4031H256.212C256.139 16.8001 256.066 17.1971 255.993 17.6735H254.865V16.4031H251.15V17.6735H250.021C249.948 17.1971 249.875 16.8001 249.802 16.4031H246.925L247.144 17.6735H246.379V19.9761H247.326L246.634 24.6606H248.382C249.001 24.6606 249.62 24.1048 249.73 23.4299C249.766 23.2711 249.985 21.9213 250.276 19.9761H251.186V24.6606H253.736C254.355 24.6606 254.865 24.1048 254.865 23.4299V19.9761H255.775C256.103 21.9213 256.321 23.2314 256.321 23.4299C256.43 24.1048 257.05 24.6606 257.669 24.6606H259.417L258.652 19.9761H259.599V18.5469C259.635 18.0705 259.307 17.6735 258.87 17.6735ZM258.87 26.9234H258.579V25.8515H254.865V26.9234H251.15V25.8515H247.435V26.9234H246.379V29.226H247.435V33.5532C247.435 34.1884 247.799 34.6251 248.309 34.8633L250.021 35.4984C248.164 36.1733 246.379 36.8482 246.379 36.8482V39.0714L253.007 36.61L259.635 39.0714V36.8085L255.993 35.4587L257.705 34.8236C258.215 34.6251 258.579 34.1487 258.579 33.5135V29.226H259.635V27.7968C259.635 27.3204 259.307 26.9234 258.87 26.9234ZM254.865 32.4019V33.0371C254.865 33.315 254.828 33.6723 254.173 33.9502C254.027 33.9899 253.626 34.1884 253.007 34.3869C252.425 34.1487 251.988 33.9899 251.842 33.9502C251.186 33.6723 251.15 33.315 251.15 33.0371V29.226H254.865V32.4019ZM271.107 18.4675C271.07 18.0308 270.779 17.6735 270.342 17.6735H264.333V16.3634H260.619V18.7454C260.619 19.4203 261.128 19.9761 261.747 19.9761H267.392V32.9974C267.392 33.2753 267.356 33.6326 266.7 33.9105C266.591 33.9502 266.263 34.109 265.863 34.3075C265.462 34.109 265.134 33.9899 265.025 33.9105C264.37 33.6326 264.333 33.2753 264.333 32.9974V21.4449H260.619V33.5135C260.619 34.1487 260.983 34.5854 261.493 34.8236L263.204 35.5778C261.857 36.213 260.655 36.8085 260.655 36.8085V39.0317L265.899 36.7291L271.143 39.0317V36.8085C271.143 36.8085 269.941 36.213 268.594 35.5778L270.306 34.8236C270.815 34.6251 271.18 34.1487 271.18 33.5135L271.107 18.4675ZM184.833 27.8762H176.348V26.6058H171.614V27.8762H166.078C166.187 27.1219 166.297 26.6058 166.297 26.6058H161.562L160.98 30.1788H171.614V32.2828H160.98V34.5854H171.614V36.6894H160.98V38.992H185.598V37.6025C185.598 37.1261 185.27 36.7291 184.833 36.7291H176.348V34.6251H185.634V33.1959C185.634 32.7195 185.307 32.3225 184.87 32.3225H176.348V30.2185H185.634V28.7893C185.634 28.2732 185.307 27.8762 184.833 27.8762ZM183.085 16.3237H160.98V25.8912H184.505C185.125 25.8912 185.634 25.3355 185.634 24.6606V16.3237H183.085ZM165.277 23.5887V22.1992H179.298V19.8967H165.277V18.6263H181.301V23.5887H165.277ZM138.619 36.7291H137.745V16.3237H135.56V36.7291H134.686V17.6735H132.501V39.0317H139.675C140.294 39.0317 140.804 38.4759 140.804 37.801V17.6735H138.619V36.7291ZM152.421 19.9761H157.156V18.5469C157.156 18.0705 156.828 17.6735 156.391 17.6735H153.186C153.332 17.2765 153.441 16.8398 153.587 16.4031H148.925L148.525 17.6735H142.115V19.9761H147.76L146.048 25.4545L145.138 21.0876H142.115L143.062 25.6927H142.115V27.9953H145.247L141.787 39.0317H145.32C145.939 39.0317 146.631 38.4759 146.849 37.801C146.922 37.5231 147.869 34.3472 149.836 28.035H151.584C152.385 32.8783 153.113 37.4834 153.15 37.801C153.259 38.4759 153.878 39.0317 154.497 39.0317H157.119L155.335 27.9953H157.119V26.5661C157.119 26.0897 156.792 25.6927 156.355 25.6927H155.663L157.156 21.0876H153.405L151.912 25.6927H150.601C151.147 23.9857 151.766 22.0801 152.421 19.9761ZM50.9252 3.06421C38.4703 3.06421 28.3462 14.1006 28.3462 27.6777C28.3462 30.6154 28.8196 33.4341 29.6936 36.0542L31.3689 33.9502C30.8226 31.9255 30.5313 29.8215 30.5313 27.6777C30.5313 15.4107 39.6721 5.44616 50.9252 5.44616C62.1783 5.44616 71.3191 15.4107 71.3191 27.6777C71.3191 29.8612 71.0278 31.9652 70.4815 33.9899L72.1567 36.0939C73.0672 33.3944 73.5042 30.536 73.5042 27.6777C73.5042 14.1006 63.3801 3.06421 50.9252 3.06421Z" fill="#005BAB"/>
<path d="M52.0498 14.0853L56.6409 12.807L52.2364 11.6085L51.1167 6.89478L49.9223 11.8083L45.5552 12.8469L50.1089 13.9255L51.1167 18.799L52.0498 14.0853ZM60.3361 33.18L51.0793 19.598L41.8226 33.18L37.9034 28.3064L29.8784 38.2932V38.3332H72.2803L64.2553 28.3464L60.3361 33.18ZM51.0793 53.2335C60.0375 53.2335 67.8385 47.7208 71.6831 39.7313H30.4756C34.3202 47.7208 42.1212 53.2335 51.0793 53.2335ZM57.9473 48.0403H44.2114C43.8382 48.0403 43.5396 47.7208 43.5396 47.3213C43.5396 46.9218 43.8382 46.6022 44.2114 46.6022H57.9473C58.3205 46.6022 58.6191 46.9218 58.6191 47.3213C58.6191 47.7208 58.2832 48.0403 57.9473 48.0403ZM35.9998 42.4877H66.1589C66.5321 42.4877 66.8307 42.8073 66.8307 43.2067C66.8307 43.6062 66.5321 43.9258 66.1589 43.9258H35.9998C35.6266 43.9258 35.328 43.6062 35.328 43.2067C35.328 42.8073 35.6266 42.4877 35.9998 42.4877Z" fill="#005BAB"/>
</svg>
