<?xml version="1.0" encoding="utf-8"?>
<!-- Generator: Adobe Illustrator 24.2.0, SVG Export Plug-In . SVG Version: 6.00 Build 0)  -->
<svg version="1.1" id="图层_1" xmlns="http://www.w3.org/2000/svg" xmlns:xlink="http://www.w3.org/1999/xlink" x="0px" y="0px"
	 viewBox="0 0 265.4 74.9" style="enable-background:new 0 0 265.4 74.9;" xml:space="preserve">
<style type="text/css">
	.st0{clip-path:url(#SVGID_2_);fill:url(#SVGID_3_);}
	.st1{fill:#7FCEFF;}
	.st2{fill:#0050FF;}
	.st3{clip-path:url(#SVGID_5_);fill:url(#SVGID_6_);}
	.st4{clip-path:url(#SVGID_8_);fill:url(#SVGID_9_);}
	.st5{clip-path:url(#SVGID_11_);fill:url(#SVGID_12_);}
	.st6{fill:#FFFFFF;}
	.st7{fill:#101326;}
</style>
<g>
	<g>
		<defs>
			<rect id="SVGID_1_" x="7.8" y="38.8" width="2.8" height="18.8"/>
		</defs>
		<clipPath id="SVGID_2_">
			<use xlink:href="#SVGID_1_"  style="overflow:visible;"/>
		</clipPath>
		
			<linearGradient id="SVGID_3_" gradientUnits="userSpaceOnUse" x1="-316.134" y1="276.0453" x2="-315.1341" y2="276.0453" gradientTransform="matrix(0 18.8093 18.8093 0 -5182.9961 5985.0361)">
			<stop  offset="0" style="stop-color:#0050FF"/>
			<stop  offset="0.3295" style="stop-color:#2E7EFF"/>
			<stop  offset="0.7824" style="stop-color:#68B7FF"/>
			<stop  offset="1" style="stop-color:#7FCEFF"/>
		</linearGradient>
		<rect x="7.8" y="38.8" class="st0" width="2.9" height="18.8"/>
	</g>
	<polygon class="st1" points="58.7,50.6 35.1,65.7 32.9,63.3 56.5,48.3 	"/>
	<polygon class="st2" points="35.8,10 11.8,24.6 9.7,22.2 33.8,7.6 	"/>
	<g>
		<defs>
			<rect id="SVGID_4_" x="32.6" y="5" width="3.5" height="15.8"/>
		</defs>
		<clipPath id="SVGID_5_">
			<use xlink:href="#SVGID_4_"  style="overflow:visible;"/>
		</clipPath>
		
			<linearGradient id="SVGID_6_" gradientUnits="userSpaceOnUse" x1="-324.3466" y1="275.8302" x2="-323.3466" y2="275.8302" gradientTransform="matrix(8.4933 12.274 12.274 -8.4933 -600.7118 6330.4551)">
			<stop  offset="0" style="stop-color:#0050FF"/>
			<stop  offset="0.592" style="stop-color:#2868FF"/>
			<stop  offset="1" style="stop-color:#3F76FF"/>
		</linearGradient>
		<polygon class="st3" points="34.9,3.4 43.4,15.6 33.7,22.4 25.2,10.1 		"/>
	</g>
	<g>
		<defs>
			<polyline id="SVGID_7_" points="33.8,51.1 35.4,52 35.4,70.8 32.3,70.8 32.3,51.1 33.8,51.1 			"/>
		</defs>
		<clipPath id="SVGID_8_">
			<use xlink:href="#SVGID_7_"  style="overflow:visible;"/>
		</clipPath>
		
			<linearGradient id="SVGID_9_" gradientUnits="userSpaceOnUse" x1="-322.8964" y1="277.8324" x2="-321.8964" y2="277.8324" gradientTransform="matrix(10.2447 14.805 14.805 -10.2447 -776.616 7680.2993)">
			<stop  offset="0" style="stop-color:#55BAFF"/>
			<stop  offset="0.5402" style="stop-color:#6ED8FF"/>
			<stop  offset="1" style="stop-color:#7FEEFF"/>
		</linearGradient>
		<polygon class="st4" points="34.4,49.6 44.6,64.4 33.3,72.2 23,57.4 		"/>
	</g>
	<g>
		<defs>
			<polygon id="SVGID_10_" points="33.7,54.5 6.3,38.4 6.3,53.2 34.3,69.3 59.9,53.5 2.9,19.9 33.6,2.1 64.5,19.1 64.5,38.6 
				34.4,21.6 32.6,20.7 32.6,17.1 34.3,18.1 61.2,33.3 61.2,20.7 33.7,5.5 8.8,19.9 65.7,53.5 34.4,72.8 3,54.8 3,33 33.8,51.1 			
				"/>
		</defs>
		<clipPath id="SVGID_11_">
			<use xlink:href="#SVGID_10_"  style="overflow:visible;"/>
		</clipPath>
		
			<linearGradient id="SVGID_12_" gradientUnits="userSpaceOnUse" x1="-317.8825" y1="284.7171" x2="-316.8825" y2="284.7171" gradientTransform="matrix(36.0974 52.1656 52.1656 -36.0974 -3361.8208 26870.9082)">
			<stop  offset="0" style="stop-color:#0050FF"/>
			<stop  offset="0.4488" style="stop-color:#3E9DFF"/>
			<stop  offset="0.8218" style="stop-color:#6DD7FF"/>
			<stop  offset="1" style="stop-color:#7FEEFF"/>
		</linearGradient>
		<polygon class="st5" points="45.4,-27.4 98.9,49.9 23.2,102.3 -30.3,25 		"/>
	</g>
	<g>
		<path class="st6" d="M93.1,52.5V26.6h14.6v3.5H97.2v8.1h9.8v3.6h-9.8v10.6H93.1z"/>
		<path class="st6" d="M116,52.5V26.6h4.2v25.9H116z"/>
		<path class="st6" d="M130.7,52.5V26.6h4.2v22.3h11v3.6H130.7z"/>
		<path class="st6" d="M152.3,51.5v-4c1.2,0.6,2.4,1,3.8,1.3c1.3,0.3,2.6,0.5,3.7,0.5c1.7,0,2.9-0.3,3.7-1s1.2-1.5,1.2-2.6
			c0-1-0.4-1.8-1.1-2.5c-0.7-0.7-2.3-1.5-4.5-2.4c-2.4-1-4-2.1-5-3.3c-1-1.2-1.4-2.7-1.4-4.4c0-2.2,0.8-3.9,2.3-5.1
			c1.5-1.2,3.6-1.9,6.2-1.9c2.5,0,4.9,0.5,7.4,1.6l-1.3,3.5c-2.3-1-4.4-1.5-6.2-1.5c-1.4,0-2.4,0.3-3.1,0.9s-1.1,1.4-1.1,2.4
			c0,0.7,0.1,1.3,0.4,1.7c0.3,0.5,0.8,0.9,1.4,1.4c0.7,0.4,1.8,1,3.5,1.7c1.9,0.8,3.3,1.5,4.2,2.2c0.9,0.7,1.5,1.5,1.9,2.3
			c0.4,0.9,0.6,1.9,0.6,3.1c0,2.3-0.8,4.1-2.5,5.4c-1.7,1.3-4,2-6.9,2C156.6,52.8,154.2,52.4,152.3,51.5z"/>
		<path class="st6" d="M174.4,26.6h4.2l3.7,15.1c0.6,2.4,1,4.5,1.3,6.4c0.1-1,0.3-2.1,0.6-3.4c0.3-1.2,0.5-2.2,0.7-3l4.2-15.1h4.2
			l4.3,15.2c0.4,1.4,0.8,3.5,1.3,6.3c0.2-1.7,0.6-3.8,1.3-6.5l3.6-15.1h4.2l-6.7,25.9h-4.7l-4.5-15.4c-0.2-0.7-0.4-1.7-0.7-2.9
			c-0.3-1.3-0.4-2.2-0.3-2.7c0.2,0.8,0.1,1.8-0.2,3c-0.3,1.2-0.5,2.1-0.6,2.7l-4.5,15.3h-4.9l-3.3-13L174.4,26.6z"/>
		<path class="st6" d="M212.2,52.5l9.7-26h4.6l9.7,26h-4.5l-2.6-7.2h-9.9l-2.5,7.2H212.2z M220.4,41.6h7.6l-2.4-7.1
			c-0.2-0.5-0.4-1.2-0.7-2.2c-0.3-1-0.5-1.8-0.6-2.2c-0.3,1.5-0.8,3-1.4,4.8L220.4,41.6z"/>
		<path class="st6" d="M243.2,52.5V26.6h5.5l12.7,20.6h0.1c0-0.3-0.1-1.3-0.2-3c-0.1-1.7-0.1-3-0.1-4V26.6h4.2v25.9h-5.5l-12.8-20.7
			H247l0.1,1.2c0.2,2.2,0.3,4.2,0.3,6v13.5H243.2z"/>
	</g>
	<g>
		<path class="st7" d="M93.1,52.5V26.6h14.6v3.5H97.2v8.1h9.8v3.6h-9.8v10.6H93.1z"/>
		<path class="st7" d="M116,52.5V26.6h4.2v25.9H116z"/>
		<path class="st7" d="M130.7,52.5V26.6h4.2v22.3h11v3.6H130.7z"/>
		<path class="st7" d="M152.3,51.5v-4c1.2,0.6,2.4,1,3.8,1.3c1.3,0.3,2.6,0.5,3.7,0.5c1.7,0,2.9-0.3,3.7-1s1.2-1.5,1.2-2.6
			c0-1-0.4-1.8-1.1-2.5c-0.7-0.7-2.3-1.5-4.5-2.4c-2.4-1-4-2.1-5-3.3c-1-1.2-1.4-2.7-1.4-4.4c0-2.2,0.8-3.9,2.3-5.1
			c1.5-1.2,3.6-1.9,6.2-1.9c2.5,0,4.9,0.5,7.4,1.6l-1.3,3.5c-2.3-1-4.4-1.5-6.2-1.5c-1.4,0-2.4,0.3-3.1,0.9s-1.1,1.4-1.1,2.4
			c0,0.7,0.1,1.3,0.4,1.7c0.3,0.5,0.8,0.9,1.4,1.4c0.7,0.4,1.8,1,3.5,1.7c1.9,0.8,3.3,1.5,4.2,2.2c0.9,0.7,1.5,1.5,1.9,2.3
			c0.4,0.9,0.6,1.9,0.6,3.1c0,2.3-0.8,4.1-2.5,5.4c-1.7,1.3-4,2-6.9,2C156.6,52.8,154.2,52.4,152.3,51.5z"/>
		<path class="st7" d="M174.4,26.6h4.2l3.7,15.1c0.6,2.4,1,4.5,1.3,6.4c0.1-1,0.3-2.1,0.6-3.4c0.3-1.2,0.5-2.2,0.7-3l4.2-15.1h4.2
			l4.3,15.2c0.4,1.4,0.8,3.5,1.3,6.3c0.2-1.7,0.6-3.8,1.3-6.5l3.6-15.1h4.2l-6.7,25.9h-4.7l-4.5-15.4c-0.2-0.7-0.4-1.7-0.7-2.9
			c-0.3-1.3-0.4-2.2-0.3-2.7c0.2,0.8,0.1,1.8-0.2,3c-0.3,1.2-0.5,2.1-0.6,2.7l-4.5,15.3h-4.9l-3.3-13L174.4,26.6z"/>
		<path class="st7" d="M212.2,52.5l9.7-26h4.6l9.7,26h-4.5l-2.6-7.2h-9.9l-2.5,7.2H212.2z M220.4,41.6h7.6l-2.4-7.1
			c-0.2-0.5-0.4-1.2-0.7-2.2c-0.3-1-0.5-1.8-0.6-2.2c-0.3,1.5-0.8,3-1.4,4.8L220.4,41.6z"/>
		<path class="st7" d="M243.2,52.5V26.6h5.5l12.7,20.6h0.1c0-0.3-0.1-1.3-0.2-3c-0.1-1.7-0.1-3-0.1-4V26.6h4.2v25.9h-5.5l-12.8-20.7
			H247l0.1,1.2c0.2,2.2,0.3,4.2,0.3,6v13.5H243.2z"/>
	</g>
</g>
</svg>
