<?xml version="1.0" encoding="utf-8"?>
<!-- Generator: Adobe Illustrator 24.2.0, SVG Export Plug-In . SVG Version: 6.00 Build 0)  -->
<svg version="1.1" id="Layer_1" xmlns="http://www.w3.org/2000/svg" xmlns:xlink="http://www.w3.org/1999/xlink" x="0px" y="0px"
	 viewBox="0 0 101.4 33.5" style="enable-background:new 0 0 101.4 33.5;" xml:space="preserve">
<style type="text/css">
	.st0{fill:#FF6B4A;}
</style>
<path class="st0" d="M44.6,0.6v1.6l3.9-0.4H50v2.7l-2.4,0.7l-3.3,0.8l0.5,1.6l3.2-1.2L50,5.8v4.4h-1.5l-3.9-0.4v1.6h12V9.8l-3.9,0.4
	h-1.5V5.8l2.1,0.6l3.2,1.2L57,6.1l-3.3-0.8l-2.5-0.7V1.9h1.5l3.9,0.4V0.6L44.6,0.6z M41,21.7v10.8h1.4v-5.1h6.2v-1.4h-6.2v-2.8h7
	v-1.4H41z M59.3,28.4c0,0.1,0,2.8-2.8,2.8c-2.6,0-2.8-2.2-2.8-2.8v-6.7h-1.4v6.7c0,2,1.1,4.2,4.2,4.2s4.2-2.3,4.2-4.2v-6.7h-1.4
	V28.4z M73.1,25.1c0-1.7-1.2-3.4-3.8-3.4h-4.6v10.8H66v-4h2.8l2.4,4H73l-2.5-4.1C71.1,28.2,73.1,27.5,73.1,25.1L73.1,25.1z M66,27.1
	v-4h3.2c0.9,0,2.4,0.3,2.4,2c0,1.6-1.3,2-2.4,2H66L66,27.1z M35.1,21.7v8.6h-0.3l-5.1-8.6h-1.9v10.8h1.4v-8.3h0.3l4.8,8.3h2.1V21.7
	L35.1,21.7L35.1,21.7z M16.2,21.7V23h3.2v8.1h-3.2v1.3H24v-1.3h-3.2V23H24v-1.3H16.2z M81.3,21.6h-1.7l-3.9,10.8h1.5l1.2-3.3h4.2
	l1.2,3.3h1.5L81.3,21.6z M78.9,27.8l1.4-3.9h0.3l1.4,3.9H78.9z"/>
</svg>
