<svg width="466" height="141" viewBox="0 0 466 141" fill="none" xmlns="http://www.w3.org/2000/svg">
<path d="M200.895 45.3869V50.0403H205.92H210.946V45.3869V40.7334H205.92H200.895V45.3869Z" fill="#0B0F28"/>
<path d="M357.075 45.3869V50.0403H362.487H367.899V45.3869V40.7334H362.487H357.075V45.3869Z" fill="#0B0F28"/>
<path d="M143.678 71.3647V100.449H148.704H153.729V91.2193V82.0676L162.853 81.6023C172.981 81.1369 177.543 79.8185 181.795 76.3284C186.28 72.6057 188.058 68.4951 188.135 62.0579C188.135 54.8451 185.738 49.8815 180.558 46.3914C175.61 43.0564 171.126 42.2809 156.435 42.2809H143.678V71.3647ZM172.208 52.8286C173.909 53.5266 175.919 55.0002 176.615 56.086C178.548 59.0332 178.471 64.85 176.46 67.642C173.677 71.4423 170.507 72.5281 161.693 72.5281H153.729V62.0579V51.5877H161.461C166.719 51.5877 170.12 51.9755 172.208 52.8286Z" fill="#0B0F28"/>
<path d="M227.953 71.3686V100.453H232.979H238.005V91.6886V82.9246L242.489 78.5039L246.973 74.0056L256.87 87.2678L266.766 100.453H272.565C275.89 100.453 278.209 100.142 278.055 99.6769C277.977 99.2892 272.488 91.9212 265.916 83.3124C257.566 72.2993 254.241 67.3357 254.705 66.6377C255.092 66.0948 260.426 60.3556 266.534 53.9959L277.591 42.2848H271.56H265.452L251.922 56.7104L238.391 71.136L238.159 56.7104L238.005 42.2848H232.979H227.953V71.3686Z" fill="#0B0F28"/>
<path d="M290.583 71.3686V100.453H295.222H299.861L300.015 79.7448L300.247 59.0371L316.329 79.7448L332.411 100.453H336.199H340.065V71.3686V42.2848H335.426H330.787L330.632 62.2169L330.401 82.2266L314.937 62.2169L299.474 42.2848H295.067H290.583V71.3686Z" fill="#0B0F28"/>
<path d="M384.288 71.1356L384.52 100.064L389.391 100.297L394.184 100.53V92.1535V83.6998L398.901 79.1239L403.54 74.4705L405.473 76.7972C406.478 78.0381 410.885 83.9325 415.292 89.7492L423.178 100.375L429.209 100.452C433.539 100.452 435.085 100.219 434.698 99.599C434.234 98.8234 413.282 70.9029 411.039 68.1109C410.498 67.4128 413.514 63.8452 421.941 55.1588C428.358 48.6441 433.616 43.0599 433.616 42.7497C433.616 42.5171 431.064 42.2844 427.894 42.2844H422.173L408.797 56.3997C401.375 64.233 395.112 70.6702 394.803 70.8253C394.416 70.9805 394.184 64.6208 394.184 56.71V42.2844H389.159H384.133L384.288 71.1356Z" fill="#0B0F28"/>
<path d="M200.895 78.7366V100.453H205.92H210.946V78.7366V57.0206H205.92H200.895V78.7366Z" fill="#0B0F28"/>
<path d="M357.847 78.7366V100.453H362.486H367.125V78.7366V57.0206H362.486H357.847V78.7366Z" fill="#0B0F28"/>
<path fill-rule="evenodd" clip-rule="evenodd" d="M37.1739 45.4649C33.769 50.5922 31.9517 56.6203 31.9517 62.7868H47.4449C47.4449 59.7036 48.3536 56.6895 50.056 54.1259C51.7585 51.5622 54.1782 49.5641 57.0092 48.3842C59.8403 47.2043 62.9555 46.8955 65.9609 47.4971C68.9663 48.0986 71.7269 49.5833 73.8937 51.7636C76.0604 53.9438 77.536 56.7215 78.1338 59.7456C78.7316 62.7696 78.4248 65.9041 77.2521 68.7527C76.0795 71.6013 74.0936 74.036 71.5458 75.749C68.9979 77.4619 66.0025 78.3762 62.9382 78.3762V78.3755H31.9517V78.3755V93.9648V109.554H47.4449V97.8633H43.5713V90.0686H51.318V93.9648H62.9381V93.9655C69.0666 93.9656 75.0576 92.137 80.1533 88.7111C85.2491 85.2851 89.2207 80.4157 91.566 74.7185C93.9114 69.0214 94.525 62.7524 93.3294 56.7043C92.1338 50.6562 89.1827 45.1007 84.8491 40.7403C80.5156 36.3798 74.9943 33.4103 68.9835 32.2073C62.9727 31.0042 56.7423 31.6217 51.0802 33.9815C45.4182 36.3413 40.5787 40.3376 37.1739 45.4649Z" fill="#56CDCF"/>
<path fill-rule="evenodd" clip-rule="evenodd" d="M56.5164 56.3297C58.5917 54.2415 60.9472 52.4647 63.5097 51.0485C64.9871 51.1218 66.4417 51.4772 67.7945 52.1001C69.574 52.9195 71.1203 54.1756 72.2915 55.7531C73.4627 57.3305 74.2212 59.1788 74.4975 61.1281C74.5983 61.8395 74.6337 62.5561 74.6046 63.2689C73.8882 63.4524 73.1842 63.6877 72.4982 63.9736C70.6185 64.757 68.9105 65.9053 67.4718 67.353C66.0331 68.8006 64.8919 70.5191 64.1133 72.4105C63.3347 74.3019 62.934 76.329 62.934 78.3762H62.9353V109.555H47.442V97.863H51.3119V90.0683H47.442V78.3764H47.4407C47.4407 74.2819 48.2421 70.2276 49.7993 66.4448C51.3566 62.662 53.639 59.2249 56.5164 56.3297ZM94.3346 78.3763C94.2008 78.6491 94.0636 78.9201 93.9229 79.1891V109.555H109.416V78.3763H94.3346ZM94.3346 78.3763L109.414 78.3762C109.414 74.2818 108.612 70.2274 107.055 66.4447C105.498 62.6619 103.215 59.2248 100.338 56.3296C99.1777 55.1621 97.9298 54.0919 96.6071 53.1277C97.0414 54.6606 97.3732 56.2262 97.5982 57.8141C98.4262 63.6577 97.7819 69.617 95.7242 75.1447C95.3138 76.2473 94.8498 77.3257 94.3346 78.3763Z" fill="#039C9D"/>
</svg>
